<svg width="4309" height="995" viewBox="0 0 4309 995" fill="none" xmlns="http://www.w3.org/2000/svg">
<path d="M1273.11 919.916C1179.64 860.054 1124.75 780.369 1047.53 712.412C994.641 665.87 943.927 618.399 889.523 572.528C807.893 503.701 720.01 438.021 622.606 377.73C417.548 250.803 208.771 126.186 1 1.0105" stroke="white" stroke-miterlimit="10"/>
<path d="M1334.42 903.678C1247.39 852.082 1199.92 779.365 1122.32 722.075C1070.7 683.957 1033.14 641.214 989.022 599.806C908.718 524.439 823.98 450.887 730.568 381.641C550.961 248.501 348.075 126.313 154.826 1.01019" stroke="white" stroke-miterlimit="10"/>
<path d="M1395.51 883.319C1320.2 848.824 1287.48 783.638 1220.07 742.899C1188.23 723.658 1151.32 707.873 1125.33 684.941C1098.28 661.064 1083.23 631.849 1061.74 606.03C999.117 530.814 917.797 459.908 838.22 391.413C677.744 253.285 489.926 128.344 308.652 1.01062" stroke="white" stroke-miterlimit="10"/>
<path d="M1456.53 861.051C1389.73 831.822 1370.02 779.029 1297.98 749.129C1258.53 732.759 1212.54 722.651 1181.99 698.497C1157.41 679.065 1148.65 653.417 1136.11 630.581C1091.66 549.615 1019.34 476.327 946.03 404.487C800.764 262.146 632.812 131.694 462.479 1.0108" stroke="white" stroke-miterlimit="10"/>
<path d="M1518.85 838.324C1471.03 814.492 1464.09 779.388 1403.77 760.477C1304.6 729.39 1225.27 735.659 1203.15 657.861C1179.49 574.633 1119.95 492.288 1054.14 418.651C923.84 272.863 774.82 135.224 616.303 1.01147" stroke="white" stroke-miterlimit="10"/>
<path d="M1581.53 818.74C1548.8 788.252 1546.28 771.136 1472.93 758.949C1385.17 744.37 1274.12 755.43 1267.55 683.58C1259.87 599.572 1222.96 509.278 1162.73 432.837C1045.87 284.539 913.894 139.945 770.127 1.01477" stroke="white" stroke-miterlimit="10"/>
<path d="M1643.04 806.254C1605.52 768.177 1654.76 801.213 1650.87 785.174C1643.99 756.803 1607.17 756.735 1552.36 753.425C1485.98 749.416 1337.86 766.628 1332.45 707.398C1331.36 695.513 1344.72 682.533 1345.89 670.544C1348.16 647.387 1333.41 620.798 1326.41 598.249C1310.85 548.156 1305.72 491.54 1270.42 444.996C1243.2 409.102 1189.14 386.078 1166.86 347.863C1143.16 307.23 1121.96 265.931 1097.54 225.304C1050.53 147.092 988.098 74.2044 923.952 1.02441" stroke="white" stroke-miterlimit="10"/>
<path d="M1697.93 801.255C1675.85 763.374 1721.44 793.095 1722.75 773.968C1724.35 750.628 1700.96 749.154 1659.03 746.489C1603.62 742.966 1407.78 765.974 1409.2 714.897C1409.48 705.052 1426.89 697.074 1429.97 687.281C1435.3 670.325 1424.37 648.973 1420.51 632.454C1407.72 577.763 1417.33 502.644 1377.17 452.845C1347.16 415.632 1272.94 408.655 1247.28 367.576C1222.64 328.115 1193.15 283.904 1177.25 242.541C1161.77 202.256 1180.71 159.944 1162.2 120.12C1143.41 79.6884 1105.52 39.3974 1077.78 1.03735" stroke="white" stroke-miterlimit="10"/>
<path d="M1747.6 801.879C1734.39 764.303 1838.73 779.246 1765.24 741.381C1740.89 728.838 1471.65 741.208 1490.48 710.733C1513.57 673.365 1535.91 709.775 1523.05 653.234C1514.84 616.866 1509.34 580.334 1506.58 543.637C1504.86 512.17 1499.04 481.024 1489.11 450.197C1456.84 415.511 1375.31 430.194 1339.65 397.936C1329.55 375.661 1315.72 354.319 1298.15 333.909C1277.2 312.708 1259.42 290.514 1244.82 267.327C1220.08 212.776 1298.47 180.956 1299.82 129.58C1300.88 89.3284 1253.56 38.1124 1231.6 1.0484" stroke="white" stroke-miterlimit="10"/>
<path d="M1793.91 806.42C1787.1 766.613 1888.89 783.974 1827.17 740.297C1797.94 719.612 1577.7 717.608 1585.59 687.728C1591.87 681.269 1600.83 677.159 1612.48 675.399C1621.88 665.224 1623.08 654.098 1616.08 642.021C1612.91 607.136 1611.98 572.225 1613.27 537.287C1614.45 505.537 1609.58 474.198 1598.67 443.269C1561.45 406.484 1477.09 436.929 1435.96 406.28C1425.08 384.066 1409.35 363.246 1388.77 343.822C1362.63 322.817 1339.76 300.506 1320.15 276.886C1286.4 212.919 1418.33 188.049 1435.52 132.673C1447.77 93.1812 1403.22 38.1272 1385.43 1.05518" stroke="white" stroke-miterlimit="10"/>
<path d="M1838.69 813.172C1838.55 767.011 1943.19 794.173 1878.47 738.149C1829.69 695.926 1718.27 698.424 1685.16 651.642C1638.07 585.1 1790.1 496.729 1725.36 435.323C1686.93 398.876 1620.66 421.73 1566.61 401.417C1545.92 385.775 1530.05 368.332 1519.01 349.088C1489.68 327.746 1461.61 305.768 1434.82 283.153C1370.39 213.757 1534.09 191.886 1568.29 137.348C1594.17 96.0779 1554.75 41.4719 1539.25 1.05389" stroke="white" stroke-miterlimit="10"/>
<path d="M1883.77 820.428C1889.81 769.329 1982.16 807.733 1937.48 740.9C1907.52 710.644 1872.55 682.873 1832.58 657.588C1812.64 644.452 1796.59 629.743 1784.43 613.462C1745.62 594.315 1709.36 603.594 1740.52 561.924C1768.36 524.699 1910.12 468.681 1879.22 421.585C1852.83 381.35 1761.39 398.745 1711.02 376.662C1692.07 362.792 1677.75 347.204 1668.06 329.898C1644.06 312.356 1621.12 294.285 1599.24 275.684C1542.32 213.706 1677.04 182.454 1709.13 132.165C1734.81 91.9272 1704.7 41.5332 1693.08 1.04425" stroke="white" stroke-miterlimit="10"/>
<path d="M1931 826.484C1938.58 794.979 1989.05 805.928 2005.09 782.649C2025.4 753.182 1962.4 685.257 1943.65 658.537C1926.59 634.224 1919.6 592.918 1883.76 576.187C1855.44 562.963 1800.42 559.966 1768.33 549.032C1818.76 501.495 1905.79 485.101 1977.64 452.637C2027.3 430.197 2069.21 416.2 2015.82 386.767C1975.45 364.509 1906.22 369.951 1866.85 346.921C1847.4 335.548 1845.3 318.748 1832.82 305.303C1816.56 287.775 1791.42 274.87 1783.37 254.658C1771.01 223.61 1799.88 196.657 1821.58 169.514C1869.53 109.52 1858.62 65.2479 1846.9 1.03186" stroke="white" stroke-miterlimit="10"/>
<path d="M1982.23 829.632C1993.8 798.929 2043.93 809.414 2062.65 786.492C2087.67 755.87 2038.5 675.307 2027.35 643.247C2017.05 613.63 2025.51 565.226 1981.53 545.643C1945.93 529.791 1860.61 525.485 1819.01 514.856C1893.02 467.362 2005.41 458.917 2101.09 433.982C2132.57 424.95 2164.06 415.918 2195.54 406.885C2212.25 389.441 2205.8 378.132 2176.2 372.96C2137.06 345.559 2057.92 347.848 2019.51 319.775C2003.15 307.816 2003.44 295.691 1995.53 282.422C1971.09 241.395 1976.71 208.313 1990.81 164.327C2008.52 109.056 2004.49 56.9683 2000.72 1.02032" stroke="white" stroke-miterlimit="10"/>
<path d="M2039.29 828.168C2055.35 798.207 2107.47 808.28 2127.7 785.266C2155.84 753.261 2116.11 667.251 2109.87 631.925C2104.45 601.202 2120.81 548.867 2076.09 527.657C2039.86 510.476 1934.48 504.939 1890.36 494.804C1976.37 445.051 2107.86 443.533 2217.21 422.667C2254.28 414.753 2291.35 406.838 2328.42 398.924C2348.47 382.016 2343.37 370.427 2313.11 364.155C2261.98 323.296 2145.91 329.597 2138.42 268.377C2127.87 182.184 2149.41 88.0352 2154.55 1.01123" stroke="white" stroke-miterlimit="10"/>
<path d="M2115.31 823.066C2130.75 794.836 2176.26 800.884 2198.72 777.905C2200.93 764.418 2203.15 750.931 2205.37 737.445C2206.52 701.726 2207.73 666.009 2209.01 630.292C2209.92 604.429 2229.95 549.375 2195.08 529C2161.76 509.529 2071.32 507.499 2029.27 496.19C2090.43 460.382 2173.03 450.947 2252.36 435.968C2292.78 428.336 2447.17 418.07 2428.61 376.788C2417.47 352.009 2352.21 333.89 2327.95 314.564C2306.69 297.628 2300.82 287.516 2292.06 266.42C2258.3 185.181 2293.41 85.8567 2308.38 1.01868" stroke="white" stroke-miterlimit="10"/>
<path d="M2192.35 820.122C2207.76 796.05 2245.09 788.385 2263.35 766.081C2293.65 729.067 2292.54 674.385 2307.72 633.834C2315.4 613.309 2350.07 563.292 2321.91 544.269C2297.03 527.455 2221.88 524.32 2188.81 512.751C2261.54 465.534 2468.46 452.563 2493.46 387.89C2500.4 369.94 2481.29 341.857 2481.12 322.956C2480.91 298.371 2489.35 290.172 2466.32 267.913C2454.22 256.221 2425.12 249.852 2415.69 236.648C2401.51 216.779 2417.31 182.481 2420.53 161.784C2429.27 105.711 2445.75 55.7713 2462.2 1.01031" stroke="white" stroke-miterlimit="10"/>
<path d="M2273.62 816.326C2297.13 783.104 2315.67 751.54 2336.11 717.641C2350.12 694.404 2488.18 593.101 2467.68 569.112C2443.68 541.024 2357.3 567.896 2377.44 522.743C2408.58 503.198 2441.28 484.738 2475.55 467.363C2506.25 454.162 2526.2 436.563 2535.4 414.566C2547.76 395.14 2566.46 378.395 2591.51 364.332C2620.49 346.808 2648.91 328.941 2676.79 310.731C2705.88 263.611 2577.63 252.046 2549.39 217.724C2524.92 187.966 2561.39 109.673 2570.79 78.812C2579.6 49.868 2604.11 28.7229 2616.03 0.999939" stroke="white" stroke-miterlimit="10"/>
<path d="M2357.68 812.054C2374.42 776.008 2364.69 731.713 2396.39 699.245C2413.78 681.437 2622.63 611.147 2609.83 592.177C2589.65 562.284 2548.28 589.071 2553.3 546.848C2564.39 527.112 2573.21 506.982 2579.74 486.457C2585.63 467.279 2585.24 448.193 2578.56 429.199C2612.41 406.312 2652.46 388.672 2698.69 376.278C2754.48 359.022 2808.73 340.045 2861.45 319.349C2902.3 264.307 2715.88 246.246 2683.47 206.406C2658.94 176.243 2699.4 100.095 2711.79 69.6237C2723.57 40.6727 2757.33 27.8037 2769.86 1.00769" stroke="white" stroke-miterlimit="10"/>
<path d="M2442.68 807.702C2451.63 766.833 2410.56 715.117 2456.77 681.132C2488.15 658.053 2749.21 644.323 2745.22 612.503C2740.26 604.765 2731.43 599.572 2718.71 596.923C2704.43 588.037 2702.36 577.588 2712.52 565.577C2709.01 542.616 2699.26 520.708 2683.27 499.851C2666.5 480.436 2654.67 459.94 2647.78 438.363C2695.09 413.054 2748.72 394.496 2808.68 382.687C2879.36 366.281 2947.34 346.319 3012.61 322.8C3046.94 262.437 2846.97 248.646 2813.87 203.391C2793.01 174.864 2839.86 100.123 2854.52 72.4962C2870.04 43.2632 2906.31 28.6741 2923.68 1.00012" stroke="white" stroke-miterlimit="10"/>
<path d="M2526.77 803.668C2528.09 777.431 2522.82 759.763 2510.07 734.645C2500.46 715.711 2478.83 685.846 2509.81 668.555C2550.86 645.643 2679.75 651.332 2731.27 648.686C2754.7 647.483 2850.78 651.1 2862.11 629.401C2867.9 618.33 2847.75 616.878 2846.38 610.213C2844.72 602.186 2839.02 591.151 2836.57 582.01C2825.31 539.855 2738 475.214 2766.61 437.487C2815.85 372.567 3014.65 380.306 3073.38 318.556C3101.57 310.952 3104.05 301.416 3080.84 289.95C3071.36 277.439 3056.85 267.797 3037.31 261.024C3009.65 244.717 2965.48 231.839 2949.75 209.046C2929.03 179.019 2972.38 127.001 2991.41 95.78C3012.76 60.745 3049.22 33.745 3077.51 1.01196" stroke="white" stroke-miterlimit="10"/>
<path d="M2608.12 800.349C2606.45 770.938 2596.94 752.81 2579.3 725.45C2566.54 705.656 2540.2 675.559 2577.19 657.726C2635.7 629.513 2935.1 687.17 2954.22 631.835C2958.22 620.234 2939.64 616.037 2934.6 607.712C2926.59 594.488 2924.95 588.095 2921.94 573.634C2912.78 529.563 2853.6 466.196 2886.63 425.589C2931.6 370.311 3075.68 359.016 3115.87 300.866C3143.96 260.201 3067.34 246.267 3066.14 206.312C3065.26 176.957 3112.32 133.779 3133.32 107.297C3162.43 70.6029 3200.18 37.0489 3231.34 1.01886" stroke="white" stroke-miterlimit="10"/>
<path d="M2684.86 798.142C2682.84 768.008 2671.72 751.165 2652.56 723.459C2638.8 703.553 2618.1 685.63 2653.4 669.923C2717.55 641.378 3012 699.769 3018.54 620.474C3020.42 597.672 2988.34 573.712 2987.91 547.584C2987.21 504.908 2968.64 447.975 3002.2 408.631C3040.07 364.227 3122.04 336.293 3145.48 285.777C3159.33 255.945 3145.38 234.716 3174.99 207.983C3249.1 141.064 3317.93 71.5186 3385.17 1.00958" stroke="white" stroke-miterlimit="10"/>
<path d="M2755.58 797.51C2758.94 773.294 2751.85 763.032 2738.56 740.344C2715.96 701.78 2732.94 699.154 2792.19 688.777C2870.46 675.069 3048.36 674.415 3070.33 611.652C3081.31 580.269 3040.57 551.039 3050.68 516.285C3064.3 469.418 3086.34 432.581 3123.15 390.908C3157.29 352.258 3171.8 317.185 3186.28 274.6C3202.88 225.779 3250.38 228.088 3308.9 203.76C3353.62 185.168 3381.03 148.617 3410.34 121.304C3453.32 81.2478 3496.23 41.1598 3538.99 1.00977" stroke="white" stroke-miterlimit="10"/>
<path d="M2828.89 806.93C2850.36 787.384 2822.42 770.895 2820.25 750.21C2817.19 720.846 2816.9 724.647 2858.29 705.559C2928.63 673.126 3110.95 665.146 3122.15 592.401C3128.65 550.247 3082.91 526.351 3115.14 482.857C3145.87 441.394 3204.72 416.347 3240.89 378.469C3275.91 341.8 3248.16 298.114 3277.01 262.126C3308.05 223.408 3387.55 224.997 3439.42 203.287C3489.46 182.341 3522.42 145.234 3557.99 115.203C3603.03 77.1827 3647.98 39.1207 3692.82 1.0097" stroke="white" stroke-miterlimit="10"/>
<path d="M2904.38 829.989C2955.19 801.081 2859.04 742.305 2944.28 703.769C3027.41 666.193 3156.5 644.497 3169.97 569.288C3176.91 530.474 3145.66 502.509 3184.74 466.721C3227.76 427.32 3315.05 414.447 3357.22 376.023C3393.49 342.986 3372.7 296.892 3409.06 264.198C3444.26 232.549 3516.36 228.387 3564.97 207.895C3675.49 161.304 3763.34 65.6938 3846.65 1.00977" stroke="white" stroke-miterlimit="10"/>
<path d="M2980.13 863.694C3008.88 856.957 2984.9 787.118 2985.31 778.939C2987.29 739.318 3007.61 719.589 3049.97 691.397C3118.5 645.794 3203.28 615.763 3229.56 550.83C3242.91 517.846 3232.69 490.026 3274.49 463.473C3330.07 428.163 3416.85 414.909 3467.03 375.693C3503.28 347.362 3505.39 308.377 3540.57 279.39C3582.46 244.885 3655.75 233.424 3708.05 206.096C3817.03 149.147 3907.08 67.7498 4000.47 1.00983" stroke="white" stroke-miterlimit="10"/>
<path d="M3051.49 901.867C3089.53 888.308 3072.63 808.08 3074.06 792.628C3079.05 738.834 3089.66 707.636 3146.69 668.152C3199.47 631.615 3260.59 596.8 3301.02 553.842C3333.21 519.646 3339.77 485.938 3391.32 459.573C3450.77 429.167 3526.54 411.826 3579.23 375.954C3620.38 347.932 3640.97 311.183 3684.86 284.096C3732.22 254.867 3793.11 235.792 3841.26 206.709C3949.82 141.136 4050.67 69.6382 4154.3 1.01019" stroke="white" stroke-miterlimit="10"/>
<path d="M3122.55 939.457C3172.78 910.855 3153.48 843.475 3157.28 803.769C3162.31 751.109 3165.26 702.087 3222.5 661.894C3278.57 622.522 3351.77 589.021 3400.76 546.07C3434.95 516.093 3451.84 487.152 3499.09 463.33C3561.08 432.082 3633.74 411.153 3691.49 376.218C3897.09 251.838 4103.88 127.001 4308.13 1.00977" stroke="white" stroke-miterlimit="10"/>
<path d="M1194.88 933.289C1400.03 910.965 1511.23 809.434 1693.44 801.524C1816.79 796.17 1890.87 837.619 2044.01 828.161C2232.3 816.532 2433.54 806.369 2622.52 800.173C2748.23 792.645 2812.75 796.341 2908.61 832.6C3027.54 877.583 3120.93 947.762 3238.97 994.431" stroke="white" stroke-miterlimit="10"/>
<path d="M1171.64 909.393C1364.85 898.151 1509.65 796.389 1699.39 788.965C1821.75 784.177 1933.14 822.001 2057.6 815.349C2242.18 805.484 2426.73 790.571 2611.54 782.97C2718.53 778.571 2800.47 783.579 2894.87 819.035C3019.75 865.946 3122.03 928.62 3253.32 970.136" stroke="white" stroke-miterlimit="10"/>
<path d="M1146.69 887.727C1258.41 888.239 1354.3 867.381 1455.83 839.213C1535.48 817.115 1614.06 788.064 1702.58 783.505C1827.11 777.09 1941.66 816.028 2068.14 809.21C2248.71 799.474 2426.83 777.669 2607.22 768.098C2717.9 762.226 2798.93 775.055 2895.58 810.871C3019.77 856.894 3125.53 907.999 3263.31 938.641" stroke="white" stroke-miterlimit="10"/>
<path d="M1119.75 860.905C1233.09 868.989 1334.96 856.602 1442.33 834.087C1532.04 815.272 1622.31 783.897 1718.23 779.461C1843.17 773.682 1957.58 811.513 2084.46 804.365C2261.85 794.372 2432.58 761.948 2609.24 750.73C2717.31 743.868 2804.27 767.908 2898.51 800.387C3020.15 842.312 3132.53 877.361 3270.58 894.327" stroke="white" stroke-miterlimit="10"/>
<path d="M1090.92 829.665C1213.71 846.246 1330.84 841.239 1452.61 823.055C1541.52 809.777 1628.08 785.201 1719 777.902C1847.93 767.554 1969.15 808.382 2099.68 800.567C2273.59 790.154 2433.96 744.081 2606.46 731.678C2709.72 724.254 2807.23 758.595 2898.68 785.146C3021.17 820.712 3142.08 836.295 3277.06 840.507" stroke="white" stroke-miterlimit="10"/>
<path d="M1060.83 795.568C1184.9 819.169 1308.54 823.931 1437.19 813.963C1533.11 806.53 1624.38 785.849 1719.41 776.737C1855.38 763.698 1981.33 805.981 2118.09 796.096C2281.4 784.293 2421.49 728.974 2582.05 713.503C2688.61 703.236 2798.65 745.693 2898.66 766.332C3025.34 792.475 3153.78 787.328 3285.04 782.365" stroke="white" stroke-miterlimit="10"/>
<path d="M1030.86 761.293C1155.78 790.174 1284.8 803.216 1417.91 801.452C1533.19 799.924 1639.21 778.514 1752.41 770.358C1881.77 761.038 2002.52 800.859 2132.88 790.764C2288.69 778.696 2409.03 710.656 2560.39 695.037C2671.57 683.564 2791.95 733.903 2901.27 746.298C3033.56 761.296 3166.19 736.381 3297.23 727.527" stroke="white" stroke-miterlimit="10"/>
<path d="M1003.5 731.629C1129.29 761.621 1259.13 780.872 1393.72 785.819C1517.12 790.356 1624.7 774.007 1744.98 763.442C1881.02 751.493 2007.42 792.658 2143.9 781.979C2219.37 776.073 2284.44 760.43 2349.71 736.859C2415.21 713.206 2485.98 679.569 2564.56 675.776C2620.26 673.088 2659.9 688.782 2710.89 700.54C2775.93 715.539 2844.64 727.903 2914.35 729.453C3051.34 732.499 3178.26 691.802 3314.18 687.331" stroke="white" stroke-miterlimit="10"/>
<path d="M978.987 709.312C1229.74 766.936 1462.14 781.017 1723.63 751.475C1867.21 735.253 2002.66 776.451 2146.05 766.613C2227.2 761.046 2297.17 741.366 2367.09 716.07C2431.9 692.624 2509.53 657.455 2587.78 659.167C2639.95 660.308 2693.41 683.329 2741.49 693.676C2806.77 707.722 2874.3 716.285 2943.61 713.49C3079.37 708.017 3200.47 668.483 3338.47 667.689" stroke="white" stroke-miterlimit="10"/>
<path d="M954.562 688.246C1191.91 742.029 1415.51 776 1666.65 744.455C1825.74 724.471 1983.59 741.433 2143.31 730.838C2229.01 725.153 2309.49 711.005 2390.4 692.985C2466.88 675.951 2556.77 649.285 2639.69 651.061C2696.67 652.281 2753.2 675.01 2809.86 684.084C2864.06 692.762 2917.15 695.84 2972.78 692.574C3035.03 688.92 3092.98 676.392 3152.86 665.996C3224.95 653.479 3292.61 651.417 3366.95 650.757" stroke="white" stroke-miterlimit="10"/>
<path d="M929.146 666.579C1165.32 718.496 1380.91 776.016 1633.93 739.3C1799.26 715.307 1966.18 695.912 2135.14 685.055C2230.73 678.912 2326.12 675.668 2421.59 668.127C2514.11 660.82 2616.45 646.372 2710.26 650.307C2815.72 654.73 2901.03 686.844 3011.13 675.69C3073.55 669.367 3131.13 653.004 3191.84 642.784C3259.95 631.316 3327.72 632.76 3397.56 632.104" stroke="white" stroke-miterlimit="10"/>
<path d="M902.535 644.366C1109.71 687.916 1321.04 774.432 1547.23 744.509C1743.34 718.565 1925.94 650.277 2127.46 637.956C2232.57 631.531 2343.29 641.01 2448.81 643.742C2569.12 646.858 2699.17 641.17 2817.79 654.331C2911.2 664.694 2982.55 671.651 3076.3 653.588C3128.61 643.51 3177.06 627.058 3230.65 619.258C3295.26 609.855 3363.86 613.398 3429.68 612.899" stroke="white" stroke-miterlimit="10"/>
<path d="M874.634 621.66C996.183 645.697 1102.36 677.204 1216.06 712.359C1298.11 737.726 1378.94 754.173 1471.44 745.74C1701.5 724.767 1889.98 607.153 2123.49 592.771C2247.42 585.139 2385.32 609.364 2507.25 621.872C2633.75 634.85 2759.95 646.02 2887.5 653.754C2976.71 659.164 3043.37 651.696 3125.23 628.93C3241.57 596.572 3335.77 593.809 3462.87 593.328" stroke="white" stroke-miterlimit="10"/>
<path d="M845.351 598.528C968.73 621.031 1075.97 646.125 1184.43 689.373C1268.96 723.074 1346.65 748.505 1450.34 737.337C1689.15 711.613 1872.44 569.768 2116.02 554.622C2260.08 545.664 2425.67 585.352 2563.93 606.11C2685.56 624.373 2812.09 647.271 2937.93 647.636C3024.42 647.887 3084.5 625.416 3158.44 601.235C3265.42 566.25 3379.19 574.197 3496.59 574.193" stroke="white" stroke-miterlimit="10"/>
<path d="M814.603 574.987C936.454 594.993 1054.94 615.216 1160.98 658.912C1242.38 692.455 1310.14 726.581 1413.09 723.261C1672.33 714.898 1855.65 550.423 2112.65 534.49C2403.73 516.445 2684.04 657.587 2975.84 631.169C3054.69 624.029 3108.56 593.579 3178.26 573.48C3283.55 543.121 3416.3 556.057 3528.93 556.134" stroke="white" stroke-miterlimit="10"/>
<path d="M782.292 551.075C905.391 568.738 1035.51 587.175 1143.62 629.521C1228.59 662.803 1305.62 706.071 1410.58 709.516C1669.36 718.012 1833.04 535.663 2083.75 522.855C2235.97 515.078 2401.86 554.381 2547.6 577.465C2677.33 598.014 2828.74 632.018 2964.33 618.598C3045.27 610.587 3099.99 576.63 3171.25 555.337C3283.2 521.889 3435.7 537.772 3556.09 537.732" stroke="white" stroke-miterlimit="10"/>
<path d="M748.275 526.937C873.978 542.006 1011.49 559.566 1123.79 599.396C1225.4 635.434 1314.61 689.629 1435.17 698.296C1680.7 715.945 1795.42 531.09 2024.14 513.906C2180.98 502.122 2364.51 546.905 2514.68 569.901C2645.81 589.982 2807.44 627.143 2944.1 609.966C3032.89 598.805 3090.29 554.445 3170.68 532.858C3289.55 500.941 3456.37 518.542 3582.82 518.362" stroke="white" stroke-miterlimit="10"/>
<path d="M712.418 502.667C846.696 515.18 993.142 532.568 1113.38 573.324C1222.79 610.408 1317.86 669.576 1442.26 686.982C1693.75 722.171 1745.5 524.469 1963.73 505.943C2124.46 492.3 2317.88 538.545 2472.32 561.14C2607.99 580.988 2790.43 623.47 2931.48 598.549C3020.77 582.774 3075.66 533.359 3159.22 511.452C3222.14 494.955 3292 498.521 3358.62 498.39C3443.72 498.223 3528.81 498.028 3613.91 497.838" stroke="white" stroke-miterlimit="10"/>
<path d="M674.568 478.354C807.809 486.848 953.622 503.45 1077.23 537.147C1204.8 571.927 1305.88 638.925 1440.55 664.298C1553.63 685.604 1643.91 664.652 1710.53 605.085C1765.94 555.545 1802.62 502.497 1908.43 493.162C1986.72 486.255 2075.17 499.6 2151.85 508.381C2259.01 520.653 2365.22 536.025 2471.7 550.377C2608.83 568.859 2786.38 608.806 2925.37 578.871C3019.98 558.494 3077.26 499.554 3174.39 482.129C3234.09 471.418 3300.66 475.72 3362.01 475.701C3459.15 475.671 3556.29 475.588 3653.43 475.523" stroke="white" stroke-miterlimit="10"/>
<path d="M634.163 454.101C774.632 458.518 928.954 474.757 1060.69 506.733C1188.89 537.851 1295.47 597.486 1427.46 623.195C1548.87 646.844 1640.64 626.803 1726.59 571.102C1792.61 528.321 1849.51 478.243 1950.49 469.471C2117.46 454.965 2312.58 501.303 2473.57 524.047C2611.65 543.555 2786.74 581.144 2926.02 547.952C3023.17 524.798 3093.77 470.507 3197.86 456.922C3355.08 436.401 3543.91 452.429 3703.86 452.408" stroke="white" stroke-miterlimit="10"/>
<path d="M590.795 429.585C736.914 430.313 879.641 447.777 1020.61 471.234C1157.08 493.943 1278.65 543.378 1416.93 562.16C1682.89 598.284 1852.55 456.717 2102.47 442.804C2375.49 427.605 2632.58 559.978 2906.46 506.222C3027.02 482.559 3129.48 434.45 3258.9 428.812C3424.31 421.606 3594.15 428.067 3759.94 428.091" stroke="white" stroke-miterlimit="10"/>
</svg>
